<?xml version="1.0" standalone="no"?><!DOCTYPE svg PUBLIC "-//W3C//DTD SVG 1.1//EN" "http://www.w3.org/Graphics/SVG/1.1/DTD/svg11.dtd"><svg t="1583069129117" class="icon" viewBox="0 0 1024 1024" version="1.1" xmlns="http://www.w3.org/2000/svg" p-id="2429" width="16" height="16" xmlns:xlink="http://www.w3.org/1999/xlink"><defs><style type="text/css"></style></defs><path d="M195 663.9c-5.3 0-10.5-2.7-13.4-7.7-6.4-11.1-12.2-22.6-17.3-34.2-3.4-7.8 0.2-16.9 8.1-20.4 7.8-3.4 16.9 0.2 20.4 8.1 4.5 10.5 9.8 21 15.7 31 4.3 7.4 1.8 16.9-5.6 21.1-2.7 1.5-5.3 2.1-7.9 2.1z" fill="#F8441A" p-id="2430"></path><path d="M512.1 838.6c-57.2 0-112.3-11.6-163.5-34.6-48.9-21.9-93-54-127.4-93-5.7-6.4-5.1-16.2 1.4-21.8 6.4-5.7 16.2-5.1 21.8 1.4 65.8 74.4 163.4 117 267.6 117 183.3 0 333.5-131 342.4-295H169.6c0.7 13.1 2.3 26.2 4.9 39 1.6 8.4-3.8 16.5-12.2 18.2-8.4 1.6-16.5-3.8-18.1-12.2-4-19.9-5.9-40.3-5.9-60.5 0-8.5 7-15.5 15.5-15.5h716.6c8.5 0 15.5 7 15.5 15.5 0 46.1-10 90.9-29.7 133.1-19 40.7-46.1 77.2-80.6 108.5-34.4 31.3-74.3 55.8-118.8 73-46 17.8-94.7 26.9-144.7 26.9zM776.3 420.6c-8.5 0-15.5-7-15.5-15.5v-73.5c0-8.5 7-15.5 15.5-15.5s15.5 7 15.5 15.5v73.5c0 8.6-6.9 15.5-15.5 15.5zM247.7 420.6c-8.5 0-15.5-7-15.5-15.5v-73.5c0-8.5 7-15.5 15.5-15.5s15.5 7 15.5 15.5v73.5c0 8.6-7 15.5-15.5 15.5zM512.1 168.3c-8.5 0-15.5-7-15.5-15.5V79.3c0-8.5 7-15.5 15.5-15.5s15.5 7 15.5 15.5v73.5c-0.1 8.5-7 15.5-15.5 15.5z" fill="#F8441A" p-id="2431"></path><path d="M650.1 512.6H373.9c-1.9 0-3.8-0.3-5.6-1-16.1-6.2-22.6-28.7-16.3-56.1l46.3-198.2c3.8-16.3 16.6-28.2 30.4-28.2h166.5c13.7 0 26.6 11.9 30.4 28.2l46.3 198.2c6.4 27.4-0.2 49.9-16.3 56.1-1.7 0.7-3.5 1-5.5 1zM298.8 960.1h426.5c1.4-1.1 4.8-9.7 0.1-24.7l-42.7-134.7c-52.6 24.9-111.2 37.8-170.6 37.8-59.3 0-117.9-13.1-170.6-37.9l-42.8 134.8c-4.7 15-1.3 23.6 0.1 24.7z" fill="#F8441A" p-id="2432"></path></svg>