<?xml version="1.0" standalone="no"?><!DOCTYPE svg PUBLIC "-//W3C//DTD SVG 1.1//EN" "http://www.w3.org/Graphics/SVG/1.1/DTD/svg11.dtd"><svg t="1582812681184" class="icon" viewBox="0 0 1204 1024" version="1.1" xmlns="http://www.w3.org/2000/svg" p-id="602" width="18.8125" height="16" xmlns:xlink="http://www.w3.org/1999/xlink"><defs><style type="text/css"></style></defs><path d="M1032.581522 507.11291c0 259.505694-213.775059 473.079969-473.529726 473.079968S85.518055 766.618604 85.518055 507.11291c0-259.493647 213.779075-473.067922 473.533741-473.067922 259.746635 0 473.529725 213.57829 473.529726 473.067922" fill="#0066B2" p-id="603"></path><path d="M665.865035 756.09349c201.744063 83.004235 167.341678-126.855529 59.335781-288.105412-61.098667-91.248439-140.802008-167.245302-191.074385-203.928596-167.341678-122.121035-269.404361-47.433286-151.913411 192.070275 38.056659 77.583059 86.939608 129.935561 125.136815 179.296376 29.145851 37.671153 85.947733 56.544878 65.941585 74.422714-22.552094 20.174808-77.145349-68.760596-77.145349-68.760596-40.3456-48.613898-78.771702-100.520659-118.378416-171.698698-90.501522-162.651357-77.44251-328.643765 86.34127-256.313224 138.998965 61.38378 271.7696 233.568376 325.166181 355.837993 24.75269 56.677396 91.393004 279.652392-122.217412 189.556454" fill="#FFFFFF" p-id="604"></path><path d="M36.735498 647.360753c89.015718-59.283576 173.385286-97.565114 316.994259-144.986353 201.776188-66.636298 353.669522-111.451357 539.997365-205.117239 90.734431-45.610165 224.834259-133.923137 278.893427-219.344816-15.476455 31.643608-62.504157 94.874604-84.261145 122.121035-252.799498 316.56458-791.327122 298.62651-1048.078055 450.628267" fill="#EC1C24" p-id="605"></path><path d="M165.847843 415.97691c81.068675 0.634478 73.470996-0.160627 74.418698 0.79109 1.429584 0 65.034039 109.547922 65.034039 110.491608 0 0.481882-0.477867-38.916016-0.477866-88.204549 0-5.690227-15.657161-22.287059-15.18331-22.287059 23.258855 0 53.641537 0.473851 53.641537 0.473851-11.384471 13.279875-13.661365 12.183592-13.761757 20.399686-0.329286 26.395106-0.622431 75.165616 0 129.947608 0.084329 8.200031 6.164078 11.388486 16.135028 25.6h-74.531137c-24.214588-40.309459-68.571859-115.924831-68.363044-115.716016 0.345349 0.35338-0.955733 47.429271 0.469836 85.377506 0.477867 12.528941 6.176125 16.596831 16.620925 27.973271 0 0 12.02698-0.321255-58.39611 0.473851 21.363451-11.384471 18.528376-25.612047 18.51633-26.081882-0.771012-52.408722-0.156612-97.22378-0.156612-126.1568 0-4.742525-0.321255-4.264659-15.034729-22.287059M420.418259 496.909051c6.826667-23.740737 12.673506-44.967655 15.432282-58.801694 0.485898-2.377286-5.216376-10.906604-14.231592-19.447969l-0.64251-1.309113c43.497914 0.132518 88.931388 0.365427 88.931388 0.365427 11.870369 28.929004 38.928063 110.025788 59.339797 159.828329 5.401098 13.167435 14.713475 15.645114 14.713474 15.645114-37.032659-0.473851-105.749082-0.168659-105.379639-0.473851 18.508298-16.584784 16.135027-16.584784 8.063498-40.787325h-57.914228c-11.874384 27.519498 3.694431 40.429929 5.690228 40.31749-13.183498 0.682667-57.914227 0-57.914228 0 24.210573-17.070682 22.78902-22.29509 22.78902-22.29509 6.658008-23.660424 14.372141-49.569631 21.12251-73.041318l23.744753 0.008031-10.21189 32.715796h46.055905l-25.636141-65.447654-10.207874 32.723827h-23.744753M818.23222 499.282322c6.830682-23.736722 12.673506-44.963639 15.444329-58.801695 0.469835-2.373271-5.208345-10.914635-14.231592-19.447968l-0.638494-1.321161c43.501929 0.136533 88.927373 0.373459 88.927372 0.373459 11.870369 28.929004 38.920031 110.013741 59.335781 159.824314 5.413145 13.175467 14.729537 15.649129 14.729537 15.649129-37.028643-0.461804-105.749082-0.156612-105.387671-0.477867 18.512314-16.600847 16.135027-16.600847 8.063498-40.779294h-57.918243c-11.862337 27.519498 3.702463 40.409851 5.694243 40.305443-13.171451 0.678651-57.914227 0-57.914227 0 24.210573-17.066667 22.78902-22.283043 22.78902-22.283043 6.645961-23.660424 14.360094-49.577663 21.106447-73.041317l23.748768 0.008031-10.203859 32.715796h46.039844l-25.624095-65.443639-10.215905 32.719812h-23.744753M743.484235 460.402447c-0.951718-33.679561 0-44.586165 0-44.586165-14.705443 11.858322-7.292486 10.352439-44.148455 4.264659-106.343404-17.548549-114.410918 81.56662-56.488658 103.865726 48.521537 18.668925 65.680565 22.331231 58.388078 39.831592-2.369255 5.694243-46.521725 26.559749-92.099765-15.641098l0.943687 58.801694c5.694243-5.866918 21.371482-16.604863 21.371482-16.604863 0.477867 0 49.38491 21.556204 93.517302-0.943686 67.889192-34.631278 34.008847-90.646086-38.450196-112.876926-60.291514-18.492235-3.329004-61.652831 56.49669-15.645113" fill="#FFFFFF" p-id="606"></path><path d="M1173.584314 79.606965c-72.165898 214.088282-361.2672 379.385976-604.621804 537.234572-146.825537 95.223969-292.578886 204.844173-392.926871 298.116518-26.459357 24.600094 5.405114-9.183875-4.73851 1.188643 140.035012-161.245867 301.120251-257.272973 390.123922-317.745192 150.560125-102.271498 236.174557-128.040157 495.873004-367.286714" fill="#EC1C24" p-id="607"></path><path d="M665.865035 756.09349c201.744063 83.004235 167.341678-126.855529 59.335781-288.105412-61.098667-91.248439-136.485145-163.619137-191.074385-203.928596-63.769098-47.079906-70.017506-50.979137-70.017506-50.979137 142.412298 67.575969 271.7696 233.568376 325.166181 355.837992 24.75269 56.677396 91.393004 279.652392-122.217412 189.556455M565.581302 77.024878c0 2.10422-1.746824 3.847027-3.867106 3.847028s-3.847027-1.742808-3.847027-3.847028c0-2.116267 1.730761-3.855059 3.847027-3.855058 2.120282 0 3.867106 1.742808 3.867106 3.855058M592.277584 135.412957a4.778667 4.778667 0 0 1-4.750557 4.750557 4.778667 4.778667 0 0 1-4.746541-4.750557c0-2.598149 2.144376-4.73851 4.746541-4.73851a4.770635 4.770635 0 0 1 4.750557 4.73851M661.712816 230.857788a4.778667 4.778667 0 0 1-4.758589 4.742526 4.770635 4.770635 0 0 1-4.742525-4.742526c0-2.602165 2.144376-4.742525 4.742525-4.742525a4.778667 4.778667 0 0 1 4.758589 4.742525M550.153035 168.313475c0 2.120282-1.746824 3.859075-3.86309 3.859074s-3.855059-1.742808-3.855059-3.859074c0-2.112251 1.742808-3.847027 3.855059-3.847028 2.116267 0 3.86309 1.734776 3.86309 3.847028M591.679247 190.251169a3.867106 3.867106 0 0 1-3.847027 3.851043 3.875137 3.875137 0 0 1-3.859075-3.851043c0-2.112251 1.742808-3.855059 3.859075-3.855059 2.112251 0 3.847027 1.742808 3.847027 3.855059M537.684329 128.895498c0 2.598149-2.140361 4.73851-4.750556 4.73851a4.774651 4.774651 0 0 1-4.750557-4.73851c0-2.598149 2.148392-4.73851 4.750557-4.73851 2.610196 0 4.750557 2.140361 4.750556 4.73851M474.786635 167.132863a3.875137 3.875137 0 0 1-3.859074 3.851043 3.875137 3.875137 0 0 1-3.859075-3.851043c0-2.112251 1.742808-3.851043 3.859075-3.851043 2.112251 0 3.859075 1.742808 3.859074 3.851043M486.058667 174.838965a3.871122 3.871122 0 0 1-3.851043 3.847027 3.871122 3.871122 0 0 1-3.863091-3.847027c0-2.120282 1.742808-3.851043 3.863091-3.851043 2.112251 0 3.851043 1.738792 3.851043 3.851043M497.338729 182.545067a3.871122 3.871122 0 0 1-3.859074 3.851043 3.867106 3.867106 0 0 1-3.855059-3.851043c0-2.120282 1.738792-3.859075 3.855059-3.859075 2.112251 0 3.859075 1.746824 3.859074 3.859075M480.127498 197.362949a3.867106 3.867106 0 0 1-3.851043 3.851043c-2.120282 0-3.855059-1.734776-3.855059-3.851043s1.742808-3.851043 3.855059-3.851043c2.10422 0 3.851043 1.738792 3.851043 3.851043M390.52549 260.200408a3.875137 3.875137 0 0 1-3.855059 3.851043 3.875137 3.875137 0 0 1-3.851043-3.851043c0-2.112251 1.742808-3.851043 3.851043-3.851043 2.112251 0 3.855059 1.742808 3.855059 3.851043M407.146416 280.359153a3.875137 3.875137 0 0 1-3.863091 3.847027 3.871122 3.871122 0 0 1-3.855058-3.847027c0-2.108235 1.742808-3.855059 3.855058-3.855059 2.116267 0 3.86309 1.746824 3.863091 3.855059M394.079373 605.818478c0 2.108235-1.734776 3.859075-3.847028 3.859075s-3.847027-1.750839-3.847027-3.859075c0-2.112251 1.734776-3.851043 3.847027-3.851043s3.847027 1.738792 3.847028 3.851043M396.460675 695.625286c0 2.60618-2.148392 4.746541-4.750557 4.746541a4.762604 4.762604 0 0 1-4.746542-4.746541c0-2.598149 2.140361-4.742525 4.746542-4.742525 2.602165 0 4.750557 2.140361 4.750557 4.742525M345.421302 741.572769a3.875137 3.875137 0 0 1-3.851043 3.851043c-2.120282 0-3.859075-1.742808-3.859075-3.851043s1.742808-3.851043 3.859075-3.851044a3.871122 3.871122 0 0 1 3.851043 3.851044M284.298541 760.253741c0 2.590118-2.140361 4.73851-4.73851 4.73851a4.778667 4.778667 0 0 1-4.754572-4.73851c0-2.60618 2.148392-4.746541 4.754572-4.746541 2.602165 0.004016 4.73851 2.140361 4.73851 4.746541M271.845898 718.743592c0 2.598149-2.152408 4.73851-4.750557 4.73851a4.762604 4.762604 0 0 1-4.746541-4.73851c0-2.590118 2.144376-4.750557 4.746541-4.750557a4.794729 4.794729 0 0 1 4.750557 4.750557M264.726086 745.130667c0 2.116267-1.742808 3.855059-3.86309 3.855058a3.875137 3.875137 0 0 1-3.851043-3.855058c0-2.108235 1.742808-3.847027 3.851043-3.847028 2.112251 0 3.86309 1.734776 3.86309 3.847028M219.035608 723.196988a3.875137 3.875137 0 0 1-3.859075 3.851043c-2.124298 0-3.855059-1.738792-3.855058-3.851043s1.734776-3.847027 3.855058-3.847027c2.116267 0 3.859075 1.726745 3.859075 3.847027M378.655122 797.298447a3.875137 3.875137 0 0 1-3.859075 3.847028 3.871122 3.871122 0 0 1-3.851043-3.847028c0-2.112251 1.742808-3.855059 3.851043-3.855059a3.871122 3.871122 0 0 1 3.859075 3.855059M426.722886 762.028675c0 2.60618-2.144376 4.734494-4.746541 4.734494a4.754573 4.754573 0 0 1-4.746541-4.734494 4.778667 4.778667 0 0 1 4.746541-4.750557 4.778667 4.778667 0 0 1 4.746541 4.750557M432.059733 807.369788a3.883169 3.883169 0 0 1-3.859074 3.867106 3.879153 3.879153 0 0 1-3.851043-3.867106c0-2.10422 1.742808-3.851043 3.851043-3.851043 2.116267 0 3.859075 1.742808 3.859074 3.851043M629.671655 764.104784a3.875137 3.875137 0 0 1-3.851043 3.843012 3.867106 3.867106 0 0 1-3.859075-3.843012 3.855059 3.855059 0 0 1 7.710118 0M537.684329 796.708141a3.875137 3.875137 0 0 1-3.855058 3.843012 3.875137 3.875137 0 0 1-3.863091-3.843012c0-2.112251 1.746824-3.86309 3.863091-3.86309 2.112251 0 3.855059 1.746824 3.855058 3.86309M785.138949 843.547106a3.871122 3.871122 0 0 1-3.855059 3.847027 3.875137 3.875137 0 0 1-3.855059-3.847027c0-2.10422 1.746824-3.855059 3.855059-3.855059a3.875137 3.875137 0 0 1 3.855059 3.855059" fill="#FFFFFF" p-id="608"></path><path d="M805.317773 661.251012c0 2.594133-2.144376 4.73851-4.746542 4.73851a4.778667 4.778667 0 0 1-4.758588-4.73851c0-2.602165 2.148392-4.758588 4.758588-4.758588a4.778667 4.778667 0 0 1 4.746542 4.758588M767.321349 687.035733a3.851043 3.851043 0 0 1-7.694055 0c0-2.112251 1.734776-3.859075 3.859075-3.859074a3.867106 3.867106 0 0 1 3.83498 3.859074M804.727467 694.444675c0 2.60618-2.156424 4.758588-4.754573 4.758588a4.794729 4.794729 0 0 1-4.762604-4.758588c0-2.598149 2.160439-4.73851 4.762604-4.73851a4.770635 4.770635 0 0 1 4.754573 4.73851M767.321349 740.376094a3.855059 3.855059 0 0 1-3.83498 3.859075 3.867106 3.867106 0 0 1-3.859075-3.859075c0-2.096188 1.734776-3.847027 3.859075-3.847027 2.100204 0 3.83498 1.750839 3.83498 3.847027M864.055216 635.462275a3.867106 3.867106 0 0 1-3.847028 3.851043 3.879153 3.879153 0 0 1-3.86309-3.851043 3.855059 3.855059 0 0 1 7.710118 0M873.548298 658.873725c0 2.598149-2.136345 4.750557-4.73851 4.750557a4.782682 4.782682 0 0 1-4.758588-4.750557c0-2.594133 2.148392-4.73851 4.758588-4.738509 2.602165 0.004016 4.73851 2.140361 4.73851 4.738509M940.023969 686.742588a4.750557 4.750557 0 0 1-9.497098 0c0-2.594133 2.136345-4.742525 4.738509-4.742525s4.758588 2.140361 4.758589 4.742525M872.367686 736.239937a3.875137 3.875137 0 0 1-3.86309 3.847028 3.871122 3.871122 0 0 1-3.855059-3.847028c0-2.116267 1.746824-3.851043 3.855059-3.851043 2.116267 0 3.86309 1.730761 3.86309 3.851043M915.090573 695.926463a3.875137 3.875137 0 0 1-3.851044 3.851043c-2.116267 0-3.855059-1.738792-3.855058-3.851043s1.738792-3.851043 3.855058-3.851043a3.867106 3.867106 0 0 1 3.851044 3.851043M907.380455 758.165584a3.883169 3.883169 0 0 1-3.859075 3.863091 3.883169 3.883169 0 0 1-3.86309-3.863091c0-2.100204 1.750839-3.851043 3.86309-3.851043 2.108235 0 3.859075 1.746824 3.859075 3.851043M925.338604 654.725522c0 3.252706-2.686494 5.927153-5.943216 5.927153a5.951247 5.951247 0 0 1-5.931168-5.927153c0-3.24869 2.666416-5.927153 5.931168-5.927153s5.943216 2.678463 5.943216 5.927153" fill="#FFFFFF" p-id="609"></path><path d="M919.395388 636.634855l-1.778949 16.311718-16.171168 1.778949 16.323764 1.766902 1.782965 16.906039 1.770918-16.906039 16.030619-2.056032-16.1792-1.489819-1.778949-16.311718M883.796329 757.876455c0 3.24869-2.686494 5.923137-5.943215 5.923137a5.959278 5.959278 0 0 1-5.931169-5.923137c0-3.260737 2.682478-5.9392 5.931169-5.9392 3.256722 0 5.943216 2.678463 5.943215 5.9392" fill="#FFFFFF" p-id="610"></path><path d="M877.849098 739.79382l-1.762886 16.29967-16.171169 1.782965 16.299671 1.782965 1.782964 16.88596 1.790997-16.88596 16.026603-2.084142-16.1792-1.481788-1.78698-16.29967M441.119122 268.207686c0 3.252706-2.686494 5.927153-5.947232 5.927153-3.252706 0-5.935184-2.678463-5.935184-5.927153 0-3.24869 2.682478-5.927153 5.935184-5.927153a5.963294 5.963294 0 0 1 5.947232 5.927153" fill="#FFFFFF" p-id="611"></path><path d="M435.17189 250.129067l-1.774933 16.29967-16.167153 1.778949 16.307702 1.774934 1.782965 16.898007 1.782964-16.898007 16.022589-2.072095-16.171169-1.481788-1.782965-16.29967M661.85738 124.75131c0 3.244675-2.686494 5.927153-5.9392 5.927153a5.975341 5.975341 0 0 1-5.935184-5.927153c0-3.252706 2.694525-5.935184 5.935184-5.935185a5.96731 5.96731 0 0 1 5.9392 5.935185" fill="#FFFFFF" p-id="612"></path><path d="M655.91818 106.668675l-1.774933 16.29967-16.163137 1.782965 16.307702 1.770917 1.790996 16.898008 1.774933-16.898008 16.026604-2.076109-16.171169-1.477773-1.790996-16.29967M393.633631 852.73098c0 3.256722-2.670431 5.931169-5.927153 5.931169-3.260737 0-5.931169-2.674447-5.931168-5.931169s2.670431-5.935184 5.931168-5.935184c3.256722 0 5.927153 2.678463 5.927153 5.935184" fill="#FFFFFF" p-id="613"></path><path d="M387.706478 834.652361l-1.782964 16.29967-16.167153 1.778949 16.315733 1.770918 1.782965 16.902024 1.774933-16.902024 16.03062-2.068078-16.1792-1.481789-1.774934-16.29967" fill="#FFFFFF" p-id="614"></path><path d="M96.938667 610.014871c-25.917239 12.681537-49.131922 25.210478-68.828863 37.442258l11.978792 4.344973c17.227294-10.597396 37.912094-21.668643 59.697192-31.418729M233.761129 849.574651a2600.775278 2600.775278 0 0 0-72.736125 65.881349l-1.088251 16.339827c22.491859-23.166494 50.107733-48.18422 81.996298-74.727905" fill="#EC1C24" p-id="615"></path></svg>